<svg xmlns="http://www.w3.org/2000/svg" viewBox="0 0 32 32">
  <!-- 클로드 머리 -->
  <rect x="6" y="0" width="8" height="1" fill="#DA7756"/>
  <rect x="6" y="1" width="8" height="1" fill="#DA7756"/>
  <rect x="6" y="2" width="2" height="1" fill="#DA7756"/>
  <rect x="9" y="2" width="2" height="1" fill="#DA7756"/>
  <rect x="12" y="2" width="2" height="1" fill="#DA7756"/>
  <!-- 몸통 -->
  <rect x="5" y="3" width="10" height="1" fill="#DA7756"/>
  <rect x="6" y="4" width="8" height="2" fill="#DA7756"/>
  <!-- 왼팔 -->
  <rect x="4" y="5" width="2" height="1" fill="#DA7756"/>
  <rect x="3" y="6" width="1" height="1" fill="#DA7756"/>
  <!-- 다리 -->
  <rect x="8" y="6" width="2" height="3" fill="#DA7756"/>
  <rect x="11" y="6" width="2" height="2" fill="#DA7756"/>
  <!-- 하트 -->
  <rect x="15" y="0" width="1" height="1" fill="#E85050"/>
  <rect x="17" y="0" width="1" height="1" fill="#E85050"/>
  <rect x="15" y="1" width="3" height="1" fill="#E85050"/>
  <rect x="16" y="2" width="1" height="1" fill="#E85050"/>
  <!-- 안장 -->
  <rect x="7" y="8" width="4" height="1" fill="#B05535"/>
  <rect x="11" y="9" width="5" height="1" fill="#B05535"/>
  <!-- 핸들바 -->
  <rect x="8" y="9" width="1" height="1" fill="#C06040"/>
  <rect x="6" y="8" width="1" height="1" fill="#C06040"/>
  <rect x="5" y="7" width="1" height="1" fill="#C06040"/>
  <rect x="3" y="6" width="2" height="1" fill="#C06040"/>
  <!-- 큰 앞바퀴 -->
  <rect x="7" y="10" width="7" height="1" fill="#C06040"/>
  <rect x="5" y="11" width="2" height="1" fill="#C06040"/>
  <rect x="14" y="11" width="2" height="1" fill="#C06040"/>
  <rect x="4" y="12" width="1" height="1" fill="#C06040"/>
  <rect x="16" y="12" width="1" height="1" fill="#C06040"/>
  <rect x="3" y="13" width="1" height="1" fill="#C06040"/>
  <rect x="17" y="13" width="1" height="1" fill="#C06040"/>
  <rect x="2" y="14" width="1" height="2" fill="#C06040"/>
  <rect x="18" y="14" width="1" height="2" fill="#C06040"/>
  <rect x="1" y="16" width="1" height="6" fill="#C06040"/>
  <rect x="19" y="16" width="1" height="6" fill="#C06040"/>
  <rect x="2" y="22" width="1" height="2" fill="#C06040"/>
  <rect x="18" y="22" width="1" height="2" fill="#C06040"/>
  <rect x="3" y="24" width="1" height="1" fill="#C06040"/>
  <rect x="17" y="24" width="1" height="1" fill="#C06040"/>
  <rect x="4" y="25" width="1" height="1" fill="#C06040"/>
  <rect x="16" y="25" width="1" height="1" fill="#C06040"/>
  <rect x="5" y="26" width="2" height="1" fill="#C06040"/>
  <rect x="14" y="26" width="2" height="1" fill="#C06040"/>
  <rect x="7" y="27" width="7" height="1" fill="#C06040"/>
  <!-- 스포크 (+) -->
  <rect x="10" y="11" width="1" height="16" fill="#C06040"/>
  <rect x="2" y="19" width="17" height="1" fill="#C06040"/>
  <!-- 스포크 (X) -->
  <rect x="4" y="13" width="1" height="1" fill="#C06040"/>
  <rect x="5" y="14" width="1" height="1" fill="#C06040"/>
  <rect x="6" y="15" width="1" height="1" fill="#C06040"/>
  <rect x="7" y="16" width="1" height="1" fill="#C06040"/>
  <rect x="8" y="17" width="1" height="1" fill="#C06040"/>
  <rect x="9" y="18" width="1" height="1" fill="#C06040"/>
  <rect x="11" y="20" width="1" height="1" fill="#C06040"/>
  <rect x="12" y="21" width="1" height="1" fill="#C06040"/>
  <rect x="13" y="22" width="1" height="1" fill="#C06040"/>
  <rect x="14" y="23" width="1" height="1" fill="#C06040"/>
  <rect x="15" y="24" width="1" height="1" fill="#C06040"/>
  <rect x="16" y="13" width="1" height="1" fill="#C06040"/>
  <rect x="15" y="14" width="1" height="1" fill="#C06040"/>
  <rect x="14" y="15" width="1" height="1" fill="#C06040"/>
  <rect x="13" y="16" width="1" height="1" fill="#C06040"/>
  <rect x="12" y="17" width="1" height="1" fill="#C06040"/>
  <rect x="11" y="18" width="1" height="1" fill="#C06040"/>
  <rect x="9" y="20" width="1" height="1" fill="#C06040"/>
  <rect x="8" y="21" width="1" height="1" fill="#C06040"/>
  <rect x="7" y="22" width="1" height="1" fill="#C06040"/>
  <rect x="6" y="23" width="1" height="1" fill="#C06040"/>
  <rect x="5" y="24" width="1" height="1" fill="#C06040"/>
  <!-- 프레임 곡선 -->
  <rect x="16" y="10" width="1" height="1" fill="#B05535"/>
  <rect x="17" y="10" width="1" height="1" fill="#B05535"/>
  <rect x="18" y="11" width="1" height="1" fill="#B05535"/>
  <rect x="19" y="12" width="1" height="1" fill="#B05535"/>
  <rect x="20" y="13" width="1" height="1" fill="#B05535"/>
  <rect x="21" y="14" width="1" height="1" fill="#B05535"/>
  <rect x="21" y="15" width="1" height="1" fill="#B05535"/>
  <rect x="22" y="16" width="1" height="1" fill="#B05535"/>
  <rect x="22" y="17" width="1" height="1" fill="#B05535"/>
  <rect x="23" y="18" width="1" height="1" fill="#B05535"/>
  <rect x="23" y="19" width="1" height="1" fill="#B05535"/>
  <rect x="23" y="20" width="1" height="1" fill="#B05535"/>
  <!-- 작은 뒷바퀴 -->
  <rect x="22" y="21" width="3" height="1" fill="#C06040"/>
  <rect x="21" y="22" width="1" height="1" fill="#C06040"/>
  <rect x="25" y="22" width="1" height="1" fill="#C06040"/>
  <rect x="20" y="23" width="1" height="3" fill="#C06040"/>
  <rect x="26" y="23" width="1" height="3" fill="#C06040"/>
  <rect x="21" y="26" width="1" height="1" fill="#C06040"/>
  <rect x="25" y="26" width="1" height="1" fill="#C06040"/>
  <rect x="22" y="27" width="3" height="1" fill="#C06040"/>
  <rect x="23" y="22" width="1" height="5" fill="#C06040"/>
  <rect x="21" y="24" width="5" height="1" fill="#C06040"/>
</svg>
